<?xml version="1.0" encoding="utf-8"?>
<!-- Generator: Adobe Illustrator 18.1.1, SVG Export Plug-In . SVG Version: 6.00 Build 0)  -->
<!DOCTYPE svg PUBLIC "-//W3C//DTD SVG 1.1//EN" "http://www.w3.org/Graphics/SVG/1.1/DTD/svg11.dtd">
<svg version="1.1" xmlns="http://www.w3.org/2000/svg" xmlns:xlink="http://www.w3.org/1999/xlink" x="0px" y="0px"
	 width="500px" height="500px" viewBox="0 0 500 500" enable-background="new 0 0 500 500" xml:space="preserve">
<path fill="#fff" d="M265,251.2l205-205c3.8-3.8,3.8-11.2,0-15c-3.7-3.8-11.2-3.8-15,0l-205,205L45,31.2c-3.8-3.8-11.2-3.8-15,0
	s-3.8,11.2,0,15l205,205l-205,205c-3.8,3.8-3.8,11.2,0,15c2.5,1.3,5,2.5,7.5,2.5s5-1.2,7.5-2.5l205-205l205,205
	c2.5,1.3,5,2.5,7.5,2.5s5-1.2,7.5-2.5c3.8-3.8,3.8-11.2,0-15L265,251.2z"/>
</svg>
