<?xml version="1.0" encoding="utf-8"?>
<!-- Generator: Adobe Illustrator 18.1.1, SVG Export Plug-In . SVG Version: 6.00 Build 0)  -->
<!DOCTYPE svg PUBLIC "-//W3C//DTD SVG 1.1//EN" "http://www.w3.org/Graphics/SVG/1.1/DTD/svg11.dtd">
<svg version="1.1" id="Layer_1" xmlns="http://www.w3.org/2000/svg" xmlns:xlink="http://www.w3.org/1999/xlink" x="0px" y="0px"
	 width="52.1px" height="48.8px" viewBox="0 0 52.1 48.8" enable-background="new 0 0 52.1 48.8" xml:space="preserve">
<g>
	<path fill="#FEFDF0" d="M50.7,21.4c-0.7-3.6-3.5-6.4-7-7c-0.6-0.1-1.1-0.2-1.7-0.2C42.1,7.8,37.7,3,32.6,1.6
		c-2.7-0.7-5.3-0.7-7.9,0.2C21.4,3,19,5.2,17.4,8.3c-0.9-0.5-1.9-0.7-3-0.7C11.4,7.7,8.6,9.9,8,13c-0.1,0.2-0.1,0.4-0.4,0.4
		c-1.6,0.6-2.9,1.5-4,2.7c-2.8,3.1-3.3,7.7-1,11.4c2,3.3,5,4.8,8.9,4.9c3.1,0,6.3,0,9.4,0c0.1,0,0.3,0,0.4,0c0-0.6,0-1.2,0-1.8
		c-0.1,0-0.2,0-0.3,0c-3.1,0-6.2,0-9.3,0c-1.6,0-3.2-0.4-4.6-1.2c-3-1.8-4.6-5.5-3.8-8.9C3.9,17.8,5.7,16,8.3,15
		c0.4-0.1,0.9-0.2,1.1-0.4c0.2-0.3,0.2-0.8,0.3-1.2c0.7-3.1,4-5.1,7.1-3.5c0.5,0.2,0.9,0.5,1.4,0.7c0.2-0.4,0.4-0.8,0.6-1.2
		c2.7-5.9,9.8-8.3,15.5-5.3c3.7,2,5.7,5.1,5.9,9.3c0,0.8,0,1.6,0,2.4c0.2,0,0.4,0,0.5,0c0.8,0,1.5,0,2.3,0.1c3.2,0.5,5.6,3,6.1,6.3
		c0.5,3-1.2,6.1-4,7.5c-1.2,0.6-2.4,0.8-3.7,0.8c-3.4,0-6.9,0-10.3,0c-0.1,0-0.3,0-0.4,0c0,0.6,0,1.2,0,1.8c0.1,0,0.2,0,0.3,0
		c3.7,0,7.3,0,11,0c0.9,0,1.7-0.1,2.6-0.4C49,30.6,51.6,26.1,50.7,21.4z"/>
	<path fill="#FEFDF0" d="M27,44.3c0-9,0-17.9,0-26.9c-0.6,0-1.2,0-1.8,0c0,8.9,0,17.8,0,26.8c-2.1-2-4-4-6-5.9
		c-0.4,0.5-0.8,0.9-1.2,1.3c2.7,2.7,5.5,5.4,8.2,8.1c2.8-2.7,5.5-5.4,8.2-8.1c-0.4-0.5-0.8-0.9-1.2-1.3C31,40.3,29,42.2,27,44.3z"/>
</g>
</svg>
