<?xml version="1.0" encoding="utf-8"?>
<!-- Designed by Vexels.com - 2016 All Rights Reserved - https://vexels.com/terms-and-conditions/  -->

<svg version="1.1" id="Layer_1" xmlns="http://www.w3.org/2000/svg" xmlns:xlink="http://www.w3.org/1999/xlink" x="0px" y="0px"
	 viewBox="0 0 1200 1200" enable-background="new 0 0 1200 1200" xml:space="preserve">
<g>
	<path fill="#0a1821" d="M600,87.991c-0.962,0-2.072,0.038-2.959,0.038l2.887,44.355H600c268.351,0,486.687,218.298,486.687,486.611
		c0,268.351-218.336,486.649-486.687,486.649S113.317,887.346,113.317,618.996c0-76.872,18.05-149.676,49.939-214.34l-39.434-20.679
		c-34.995,70.918-54.826,150.673-54.826,235.019C68.996,912.318,306.716,1150,600,1150c293.209,0,531.004-237.682,531.004-531.004
		C1131.004,325.711,893.209,87.991,600,87.991z"/>
	<g>
		<path fill="#0a1821" d="M159.926,334.848c78.945-135.21,221.147-228.951,385.768-240.603L542.735,50
			C362.06,62.614,206.315,165.678,120.344,314.207L159.926,334.848z"/>
		<path fill="#0a1821" d="M305.753,410.906c-2.144-5.288-3.254-11.023-3.254-17.088c0-25.528,20.494-46.056,46.018-46.056
			c25.38,0,45.946,20.528,45.946,46.056c0,21.789-15.24,39.953-35.586,44.723l166.912,87.085l32.631,16.978l17.384,9.137
			l-17.164-259.843c-17.164-6.656-29.373-23.229-29.373-42.726c0-17.459,9.766-32.37,23.971-40.211l-6.065-91.707
			c-156.408,11.133-291.583,100.029-366.903,228.174L305.753,410.906z"/>
	</g>
	<path fill="#0a1821" d="M601.405,155.393l5.845,88.972c19.46,5.364,33.885,23.009,33.885,44.17
		c0,19.088-11.614,35.438-28.112,42.393l18.941,288.549c0.443,6.25-2.515,12.171-7.769,15.611c-2.811,1.849-6.069,2.739-9.398,2.739
		c-2.735,0-5.474-0.557-7.989-1.852l-20.865-10.91l-80.202-41.84L183.602,415.236c-30.188,61.595-47.276,130.66-47.276,203.76
		c0,255.661,208.051,463.64,463.674,463.64c255.627,0,463.602-207.979,463.602-463.64
		C1063.602,363.854,856.437,156.136,601.405,155.393z M371.455,857.344c-25.377,0-45.946-20.641-45.946-45.984
		c0-25.415,20.57-46.018,45.946-46.018c25.452,0,46.022,20.604,46.022,46.018C417.477,836.703,396.907,857.344,371.455,857.344z
		 M631.222,965.882c-25.377,0-46.018-20.604-46.018-46.094c0-25.415,20.642-45.908,46.018-45.908
		c25.452,0,46.022,20.494,46.022,45.908C677.244,945.278,656.674,965.882,631.222,965.882z M752.858,745.549
		c-25.38,0-46.022-20.604-46.022-46.018s20.641-46.022,46.022-46.022c25.449,0,46.018,20.607,46.018,46.022
		S778.307,745.549,752.858,745.549z M835.057,466.065c0-25.415,20.57-46.018,46.018-46.018c25.452,0,46.022,20.604,46.022,46.018
		c0,25.415-20.57,46.018-46.022,46.018C855.627,512.083,835.057,491.48,835.057,466.065z M927.097,775.108
		c-25.377,0-46.022-20.57-46.022-45.984s20.645-46.018,46.022-46.018c25.452,0,46.094,20.604,46.094,46.018
		S952.55,775.108,927.097,775.108z"/>
</g>
</svg>
